<svg width="1200" height="320" viewBox="0 0 1200 320" fill="none" xmlns="http://www.w3.org/2000/svg">
  <defs>
    <linearGradient id="bg" x1="0" y1="0" x2="1200" y2="320" gradientUnits="userSpaceOnUse">
      <stop offset="0" stop-color="#0D1117" />
      <stop offset="1" stop-color="#111827" />
    </linearGradient>
    <linearGradient id="accent" x1="0" y1="0" x2="1200" y2="0" gradientUnits="userSpaceOnUse">
      <stop offset="0" stop-color="#58A6FF" stop-opacity="0.45" />
      <stop offset="1" stop-color="#79C0FF" stop-opacity="0.1" />
    </linearGradient>
    <filter id="soft" x="0" y="0" width="1200" height="320" filterUnits="userSpaceOnUse">
      <feDropShadow dx="0" dy="12" stdDeviation="24" flood-color="#000000" flood-opacity="0.16" />
    </filter>
  </defs>
  <rect width="1200" height="320" rx="24" fill="url(#bg)" />
  <rect x="32" y="32" width="1136" height="256" rx="20" fill="url(#accent)" opacity="0.15" />
  <rect x="56" y="56" width="1088" height="208" rx="18" fill="#0D1117" stroke="#30363D" stroke-opacity="0.85" stroke-width="1" filter="url(#soft)" />
  <path d="M96 232C156 190 220 172 316 184C412 196 518 238 634 254C750 270 856 230 940 192" stroke="#58A6FF" stroke-width="2" stroke-linecap="round" />
  <circle cx="920" cy="94" r="26" fill="#79C0FF" fill-opacity="0.16" />
  <circle cx="264" cy="124" r="14" fill="#58A6FF" fill-opacity="0.8" />
  <circle cx="760" cy="182" r="10" fill="#58A6FF" fill-opacity="0.65" />
  <text x="64" y="108" fill="#C9D1D9" font-family="JetBrains Mono, monospace" font-size="24">SHRESHTH VYAS</text>
  <text x="64" y="148" fill="#58A6FF" font-family="JetBrains Mono, monospace" font-size="44" font-weight="700">Senior Software Engineer</text>
  <text x="64" y="190" fill="#8B949E" font-family="JetBrains Mono, monospace" font-size="18">Java · Spring Boot · Node.js · Distributed Systems</text>
  <text x="64" y="246" fill="#8B949E" font-family="JetBrains Mono, monospace" font-size="16">Building scalable systems with clean architecture and observability.</text>
</svg>