<svg width="1200" height="320" viewBox="0 0 1200 320" fill="none" xmlns="http://www.w3.org/2000/svg">
  <defs>
    <linearGradient id="terminalBg" x1="0" y1="0" x2="1200" y2="320" gradientUnits="userSpaceOnUse">
      <stop offset="0" stop-color="#0D1117" />
      <stop offset="1" stop-color="#111827" />
    </linearGradient>
  </defs>
  <rect width="1200" height="320" rx="24" fill="url(#terminalBg)" stroke="#30363D" stroke-opacity="0.75" stroke-width="1" />
  <rect x="40" y="40" width="1120" height="240" rx="16" fill="#010409" />
  <rect x="56" y="64" width="1120" height="220" rx="16" fill="#010409" />
  <rect x="56" y="64" width="1120" height="40" rx="16" fill="#161B22" />
  <circle cx="86" cy="84" r="6" fill="#58A6FF" />
  <circle cx="110" cy="84" r="6" fill="#79C0FF" />
  <circle cx="134" cy="84" r="6" fill="#8B949E" />
  <rect x="156" y="76" width="260" height="16" rx="8" fill="#0D1117" />
  <text x="92" y="120" fill="#58A6FF" font-family="JetBrains Mono, monospace" font-size="16">$</text>
  <text x="118" y="120" fill="#C9D1D9" font-family="JetBrains Mono, monospace" font-size="16">whoami</text>
  <text x="118" y="144" fill="#8B949E" font-family="JetBrains Mono, monospace" font-size="16">Shreshth Vyas</text>
  <text x="92" y="184" fill="#58A6FF" font-family="JetBrains Mono, monospace" font-size="16">$</text>
  <text x="118" y="184" fill="#C9D1D9" font-family="JetBrains Mono, monospace" font-size="16">role</text>
  <text x="118" y="208" fill="#8B949E" font-family="JetBrains Mono, monospace" font-size="16">Senior Software Engineer</text>
  <text x="92" y="248" fill="#58A6FF" font-family="JetBrains Mono, monospace" font-size="16">$</text>
  <text x="118" y="248" fill="#C9D1D9" font-family="JetBrains Mono, monospace" font-size="16">stack</text>
  <text x="118" y="272" fill="#8B949E" font-family="JetBrains Mono, monospace" font-size="16">Java · Spring Boot · Node.js · Express.js · React · Next.js · Docker · AWS · Redis · PostgreSQL · MongoDB</text>
  <rect x="56" y="290" width="1120" height="2" fill="#30363D" />
</svg>